<svg width="40" height="20" viewBox="0 0 40 20" fill="none" xmlns="http://www.w3.org/2000/svg">
<path fill-rule="evenodd" clip-rule="evenodd" d="M22.161 19.2364C21.5976 19.7253 20.8336 20 20.0369 20C19.2403 20 18.4762 19.7253 17.9128 19.2364L0.917194 4.48369C0.630245 4.24312 0.401367 3.95536 0.243912 3.63719C0.0864563 3.31902 0.00357819 2.97681 0.000114441 2.63054C-0.00335312 2.28427 0.0726624 1.94086 0.223724 1.62036C0.374786 1.29987 0.59787 1.00869 0.879959 0.763829C1.16204 0.518968 1.49748 0.325325 1.86671 0.194199C2.23593 0.0630726 2.63155 -0.00291054 3.03046 9.84657e-05C3.42938 0.00310748 3.82361 0.0750491 4.19016 0.211725C4.5567 0.348402 4.88821 0.547074 5.16535 0.796153L20.0369 13.7051L34.9085 0.796153C35.4751 0.321107 36.234 0.0582483 37.0218 0.0641901C37.8095 0.070132 38.563 0.344399 39.12 0.82792C39.6771 1.31144 39.993 1.96553 39.9999 2.64931C40.0067 3.33308 39.7039 3.99184 39.1566 4.48369L22.161 19.2364Z" fill="#252424" fill-opacity="0.4"/>
</svg>
