<svg width="60" height="30" viewBox="0 0 60 30" fill="none" xmlns="http://www.w3.org/2000/svg">
<path fill-rule="evenodd" clip-rule="evenodd" d="M33.2415 28.8547C32.3964 29.588 31.2503 30 30.0554 30C28.8604 30 27.7144 29.588 26.8693 28.8547L1.37579 6.72554C0.94537 6.36469 0.602051 5.93304 0.365868 5.45578C0.129684 4.97852 0.00537109 4.46521 0.000171661 3.94581C-0.00503159 3.4264 0.108994 2.91129 0.335587 2.43055C0.562176 1.9498 0.896805 1.51303 1.31993 1.14574C1.74307 0.778452 2.24622 0.487988 2.80006 0.291298C3.3539 0.0946089 3.94732 -0.00436582 4.54569 0.000147699C5.14407 0.00466121 5.73542 0.112574 6.28523 0.317588C6.83505 0.522602 7.33231 0.820612 7.74803 1.19423L30.0554 20.5577L52.3627 1.19423C53.2127 0.481661 54.351 0.0873724 55.5326 0.0962852C56.7142 0.105198 57.8445 0.516599 58.6801 1.24188C59.5156 1.96716 59.9896 2.9483 59.9998 3.97396C60.0101 4.99963 59.5559 5.98776 58.735 6.72554L33.2415 28.8547Z" fill="#252424"/>
</svg>
