<svg width="20" height="10" viewBox="0 0 20 10" fill="none" xmlns="http://www.w3.org/2000/svg">
<path fill-rule="evenodd" clip-rule="evenodd" d="M11.0805 9.61822C10.7988 9.86267 10.4168 10 10.0185 10C9.62014 10 9.23812 9.86267 8.95642 9.61822L0.458597 2.24185C0.315123 2.12156 0.200684 1.97768 0.121956 1.81859C0.0432281 1.65951 0.00178909 1.4884 5.72205e-05 1.31527C-0.00167656 1.14213 0.0363312 0.970431 0.111862 0.810182C0.187393 0.649933 0.298935 0.504345 0.43998 0.381914C0.581022 0.259484 0.748741 0.162663 0.933353 0.0970995C1.11797 0.0315363 1.31577 -0.00145527 1.51523 4.92329e-05C1.71469 0.00155374 1.91181 0.0375246 2.09508 0.105863C2.27835 0.174201 2.44411 0.273537 2.58268 0.398077L10.0185 6.85257L17.4542 0.398077C17.7376 0.160554 18.117 0.0291241 18.5109 0.0320951C18.9047 0.035066 19.2815 0.1722 19.56 0.41396C19.8385 0.655721 19.9965 0.982765 19.9999 1.32465C20.0034 1.66654 19.852 1.99592 19.5783 2.24185L11.0805 9.61822Z" fill="#252424" fill-opacity="0.4"/>
</svg>
