<svg width="24" height="24" viewBox="0 0 24 24" fill="none" xmlns="http://www.w3.org/2000/svg">
<path d="M12 0C10.4241 0 8.86371 0.313562 7.4078 0.922784C5.95189 1.53201 4.62902 2.42495 3.51472 3.55065C1.26428 5.82409 0 8.90754 0 12.1227C0 17.4809 3.444 22.0269 8.208 23.6392C8.808 23.7362 9 23.3604 9 23.0331V20.9843C5.676 21.7117 4.968 19.3599 4.968 19.3599C4.416 17.9537 3.636 17.5779 3.636 17.5779C2.544 16.8263 3.72 16.8505 3.72 16.8505C4.92 16.9354 5.556 18.0992 5.556 18.0992C6.6 19.9418 8.364 19.3963 9.048 19.1053C9.156 18.3174 9.468 17.784 9.804 17.4809C7.14 17.1778 4.344 16.1353 4.344 11.5165C4.344 10.1709 4.8 9.09201 5.58 8.2313C5.46 7.92823 5.04 6.66747 5.7 5.03091C5.7 5.03091 6.708 4.7036 9 6.26742C9.948 6.00072 10.98 5.86737 12 5.86737C13.02 5.86737 14.052 6.00072 15 6.26742C17.292 4.7036 18.3 5.03091 18.3 5.03091C18.96 6.66747 18.54 7.92823 18.42 8.2313C19.2 9.09201 19.656 10.1709 19.656 11.5165C19.656 16.1474 16.848 17.1657 14.172 17.4688C14.604 17.8446 15 18.5841 15 19.7115V23.0331C15 23.3604 15.192 23.7483 15.804 23.6392C20.568 22.0148 24 17.4809 24 12.1227C24 10.5307 23.6896 8.95432 23.0866 7.48353C22.4835 6.01274 21.5996 4.67634 20.4853 3.55065C19.371 2.42495 18.0481 1.53201 16.5922 0.922784C15.1363 0.313562 13.5759 0 12 0Z" fill="#545454"/>
</svg>
