<svg width="24" height="22" viewBox="0 0 24 22" fill="none" xmlns="http://www.w3.org/2000/svg">
<path d="M0 2.64706C0 1.94502 0.252856 1.27173 0.702944 0.775305C1.15303 0.278886 1.76348 0 2.4 0H21.6C22.2365 0 22.847 0.278886 23.2971 0.775305C23.7471 1.27173 24 1.94502 24 2.64706V18.5294C24 19.2315 23.7471 19.9047 23.2971 20.4012C22.847 20.8976 22.2365 21.1765 21.6 21.1765H2.4C1.76348 21.1765 1.15303 20.8976 0.702944 20.4012C0.252856 19.9047 0 19.2315 0 18.5294V2.64706ZM4.2228 2.64706L12 10.1528L19.7772 2.64706H4.2228ZM21.6 4.40603L12.7908 12.9084C12.572 13.1198 12.2909 13.2364 12 13.2364C11.7091 13.2364 11.428 13.1198 11.2092 12.9084L2.4 4.40603V18.5294H21.6V4.40603Z" fill="#545454"/>
</svg>
