<svg width="10" height="20" viewBox="0 0 10 20" fill="none" xmlns="http://www.w3.org/2000/svg">
<path fill-rule="evenodd" clip-rule="evenodd" d="M9.61822 8.9195C9.86267 9.2012 10 9.58322 10 9.98154C10 10.3799 9.86267 10.7619 9.61822 11.0436L2.24185 19.5414C2.12156 19.6849 1.97768 19.7993 1.81859 19.878C1.65951 19.9568 1.4884 19.9982 1.31527 19.9999C1.14213 20.0017 0.970431 19.9637 0.810182 19.8881C0.649933 19.8126 0.504345 19.7011 0.381914 19.56C0.259484 19.419 0.162663 19.2513 0.0970995 19.0666C0.0315363 18.882 -0.00145527 18.6842 4.92329e-05 18.4848C0.00155374 18.2853 0.0375246 18.0882 0.105863 17.9049C0.174201 17.7217 0.273537 17.5559 0.398077 17.4173L6.85257 9.98154L0.398077 2.54576C0.160554 2.26244 0.0291241 1.88299 0.0320951 1.48912C0.035066 1.09526 0.1722 0.718494 0.41396 0.439978C0.655721 0.161462 0.982765 0.00347938 1.32465 5.67863e-05C1.66654 -0.00336581 1.99592 0.148045 2.24185 0.421679L9.61822 8.9195Z" fill="#252424"/>
</svg>
