<svg width="10" height="20" viewBox="0 0 10 20" fill="none" xmlns="http://www.w3.org/2000/svg">
<path fill-rule="evenodd" clip-rule="evenodd" d="M0.381776 11.0805C0.137325 10.7988 2.208e-07 10.4168 2.208e-07 10.0185C2.208e-07 9.62014 0.137325 9.23812 0.381776 8.95642L7.75815 0.458597C7.87844 0.315123 8.02232 0.200683 8.18141 0.121956C8.34049 0.043228 8.5116 0.0017899 8.68473 5.66586e-05C8.85787 -0.00167658 9.02957 0.0363308 9.18982 0.111862C9.35007 0.187392 9.49566 0.298935 9.61809 0.439979C9.74052 0.581022 9.83734 0.748742 9.9029 0.933354C9.96846 1.11797 10.0015 1.31577 9.99995 1.51523C9.99845 1.71469 9.96248 1.91181 9.89414 2.09508C9.8258 2.27835 9.72646 2.4441 9.60192 2.58268L3.14743 10.0185L9.60192 17.4542C9.83945 17.7376 9.97088 18.117 9.9679 18.5109C9.96493 18.9047 9.8278 19.2815 9.58604 19.56C9.34428 19.8385 9.01723 19.9965 8.67535 19.9999C8.33346 20.0034 8.00408 19.852 7.75815 19.5783L0.381776 11.0805Z" fill="#252424"/>
</svg>
