<svg width="60" height="30" viewBox="0 0 60 30" fill="none" xmlns="http://www.w3.org/2000/svg">
<path fill-rule="evenodd" clip-rule="evenodd" d="M26.7585 1.14533C27.6036 0.411974 28.7497 0 29.9446 0C31.1396 0 32.2856 0.411974 33.1307 1.14533L58.6242 23.2745C59.0546 23.6353 59.3979 24.067 59.6341 24.5442C59.8703 25.0215 59.9946 25.5348 59.9998 26.0542C60.005 26.5736 59.891 27.0887 59.6644 27.5695C59.4378 28.0502 59.1032 28.487 58.6801 28.8543C58.2569 29.2215 57.7538 29.512 57.1999 29.7087C56.6461 29.9054 56.0527 30.0044 55.4543 29.9999C54.8559 29.9953 54.2646 29.8874 53.7148 29.6824C53.165 29.4774 52.6677 29.1794 52.252 28.8058L29.9446 9.44228L7.63728 28.8058C6.78734 29.5183 5.64897 29.9126 4.46737 29.9037C3.28577 29.8948 2.15548 29.4834 1.31993 28.7581C0.484385 28.0328 0.0104381 27.0517 0.000170359 26.026C-0.0100974 25.0004 0.444136 24.0122 1.26504 23.2745L26.7585 1.14533Z" fill="#252424"/>
</svg>
