<svg width="20" height="10" viewBox="0 0 20 10" fill="none" xmlns="http://www.w3.org/2000/svg">
<path fill-rule="evenodd" clip-rule="evenodd" d="M8.9195 0.381776C9.2012 0.137325 9.58322 0 9.98154 0C10.3799 0 10.7619 0.137325 11.0436 0.381776L19.5414 7.75815C19.6849 7.87844 19.7993 8.02232 19.878 8.18141C19.9568 8.34049 19.9982 8.5116 19.9999 8.68473C20.0017 8.85787 19.9637 9.02957 19.8881 9.18982C19.8126 9.35007 19.7011 9.49566 19.56 9.61809C19.419 9.74052 19.2513 9.83734 19.0666 9.9029C18.882 9.96846 18.6842 10.0015 18.4848 9.99995C18.2853 9.99845 18.0882 9.96248 17.9049 9.89414C17.7217 9.8258 17.5559 9.72646 17.4173 9.60192L9.98154 3.14743L2.54576 9.60192C2.26244 9.83945 1.88299 9.97088 1.48912 9.9679C1.09526 9.96493 0.718494 9.8278 0.439978 9.58604C0.161462 9.34428 0.00347938 9.01723 5.67863e-05 8.67535C-0.00336581 8.33346 0.148045 8.00408 0.421679 7.75815L8.9195 0.381776Z" fill="#252424" fill-opacity="0.4"/>
</svg>
