<svg width="40" height="20" viewBox="0 0 40 20" fill="none" xmlns="http://www.w3.org/2000/svg">
<path fill-rule="evenodd" clip-rule="evenodd" d="M17.839 0.763552C18.4024 0.274651 19.1664 0 19.9631 0C20.7597 0 21.5238 0.274651 22.0872 0.763552L39.0828 15.5163C39.3698 15.7569 39.5986 16.0446 39.7561 16.3628C39.9135 16.681 39.9964 17.0232 39.9999 17.3695C40.0034 17.7157 39.9273 18.0591 39.7763 18.3796C39.6252 18.7001 39.4021 18.9913 39.12 19.2362C38.838 19.481 38.5025 19.6747 38.1333 19.8058C37.7641 19.9369 37.3685 20.0029 36.9695 19.9999C36.5706 19.9969 36.1764 19.925 35.8098 19.7883C35.4433 19.6516 35.1118 19.4529 34.8346 19.2038L19.9631 6.29486L5.09152 19.2038C4.52489 19.6789 3.76598 19.9418 2.97825 19.9358C2.19052 19.9299 1.43699 19.6556 0.879955 19.1721C0.322923 18.6886 0.00695876 18.0345 0.000113573 17.3507C-0.00673161 16.6669 0.29609 16.0082 0.843358 15.5163L17.839 0.763552Z" fill="#252424" fill-opacity="0.4"/>
</svg>
